<svg width="512" height="512" xmlns="http://www.w3.org/2000/svg">
 <title/>

 <g>
  <title>background</title>
  <rect fill="none" id="canvas_background" height="402" width="582" y="-1" x="-1"/>
 </g>
 <g>
  <title>Layer 1</title>
  <path fill="#999999" id="svg_1" d="m258.44,313a75.51,75.51 0 0 1 -48.29,-17.4l0,0a160.33,160.33 0 0 1 -57.88,-129l0.59,-16.68a105.64,105.64 0 0 1 211.16,0l0.59,16.68a160.33,160.33 0 0 1 -57.88,129a75.51,75.51 0 0 1 -48.29,17.4zm-29.14,-40.45a45.69,45.69 0 0 0 58.28,0a131.16,131.16 0 0 0 47.05,-104.88l-0.63,-16.67a75.65,75.65 0 0 0 -151.2,0l-0.59,16.68a131.16,131.16 0 0 0 47.09,104.87z"/>
  <path fill="#999999" id="svg_2" d="m379.44,450l-242,0a15,15 0 0 1 -15,-15l0,-54.08a120.57,120.57 0 0 1 82.34,-114.47a15,15 0 1 1 9.52,28.44a90.62,90.62 0 0 0 -61.86,86l0,39.11l212,0l0,-39.08a90.62,90.62 0 0 0 -61.86,-86a15,15 0 1 1 9.52,-28.44a120.57,120.57 0 0 1 82.34,114.47l0,54.05a15,15 0 0 1 -15,15z"/>
 </g>
</svg>