<svg width="32" height="32" xmlns="http://www.w3.org/2000/svg">

 <title/>
 <g>
  <title>background</title>
  <rect fill="none" id="canvas_background" height="402" width="582" y="-1" x="-1"/>
 </g>
 <g>
  <title>Layer 1</title>
  <path fill="#999999" id="svg_1" d="m26,30a1,1 0 0 1 -0.62,-0.22l-7.23,-5.78l-14.15,0a3,3 0 0 1 -3,-3l0,-16a3,3 0 0 1 3,-3l24,0a3,3 0 0 1 3,3l0,16a3,3 0 0 1 -3,3l-1,0l0,5a1,1 0 0 1 -0.57,0.9a0.91,0.91 0 0 1 -0.43,0.1zm-22,-26a1,1 0 0 0 -1,1l0,16a1,1 0 0 0 1,1l14.5,0a1,1 0 0 1 0.63,0.22l5.87,4.7l0,-3.92a1,1 0 0 1 1,-1l2,0a1,1 0 0 0 1,-1l0,-16a1,1 0 0 0 -1,-1l-24,0z" class="cls-1"/>
 </g>
</svg>