<svg width="32" height="32" viewBox="0 0 32 32" fill="none" xmlns="http://www.w3.org/2000/svg">
<path d="M15.9961 28.8355C15.8303 28.8355 15.6713 28.7696 15.5541 28.6524C13.8885 26.9868 12.2403 25.5127 10.6465 24.087C8.25119 21.9447 5.98875 19.9212 4.37225 17.8154C2.54075 15.4296 1.68775 13.1467 1.68775 10.6312C1.68775 6.51406 5.03725 3.1645 9.15438 3.1645C12.6145 3.1645 14.4426 4.82893 15.9961 7.58456C17.5496 4.82893 19.3776 3.1645 22.8378 3.1645C26.9593 3.1645 30.3124 6.51406 30.3124 10.6312C30.3124 13.1456 29.4593 15.4276 27.6275 17.8126C26.0109 19.9176 23.7487 21.9399 21.3538 24.081C19.7571 25.5084 18.1061 26.9844 16.4381 28.6525C16.3208 28.7696 16.1618 28.8355 15.9961 28.8355ZM9.15438 4.4145C5.7265 4.4145 2.93775 7.20331 2.93775 10.6312C2.93775 15.5154 6.70731 18.8869 11.4798 23.1554C12.9461 24.4669 14.4581 25.8192 15.9961 27.3305C17.5366 25.8168 19.0514 24.4625 20.5206 23.1491C25.2929 18.8827 29.0624 15.5128 29.0624 10.6312C29.0624 7.20331 26.27 4.4145 22.8378 4.4145C19.9296 4.4145 18.3443 5.62212 16.5551 9.20024C16.4493 9.41199 16.2329 9.54574 15.9961 9.54574C15.7594 9.54574 15.543 9.41199 15.4371 9.20024C13.6479 5.62212 12.0626 4.4145 9.15438 4.4145Z" fill="#667580" stroke="#667580" stroke-width="2.3"/>
</svg>
