<svg width="24" height="23" viewBox="0 0 24 23" fill="none" xmlns="http://www.w3.org/2000/svg">
<mask id="path-1-inside-1" fill="white">
<path d="M4.0141 9.61139L5.8554 23H17.7953L19.6369 9.60352"/>
</mask>
<path d="M5.99545 9.3389C5.84496 8.24463 4.83588 7.47954 3.74161 7.63004C2.64734 7.78053 1.88226 8.78961 2.03275 9.88388L5.99545 9.3389ZM5.8554 23L3.87405 23.2725C4.01019 24.2624 4.85612 25 5.8554 25V23ZM17.7953 23V25C18.7946 25 19.6405 24.2624 19.7766 23.2724L17.7953 23ZM21.6182 9.87589C21.7687 8.78161 21.0035 7.77258 19.9092 7.62215C18.815 7.47172 17.8059 8.23686 17.6555 9.33114L21.6182 9.87589ZM2.03275 9.88388L3.87405 23.2725L7.83675 22.7275L5.99545 9.3389L2.03275 9.88388ZM5.8554 25H17.7953V21H5.8554V25ZM19.7766 23.2724L21.6182 9.87589L17.6555 9.33114L15.8139 22.7276L19.7766 23.2724Z" fill="#667580" mask="url(#path-1-inside-1)"/>
<mask id="path-3-inside-2" fill="white">
<path d="M10.8022 0.425034C11.0454 0.141678 11.3698 0 11.6874 0C12.0117 0 12.3293 0.141678 12.5726 0.425034L19.8164 8.86277L22.8233 12.3654C23.3099 12.9321 23.3099 13.853 22.8233 14.4276C22.3301 14.9943 21.5395 14.9943 21.0529 14.4276L19.4988 12.6173"/>
</mask>
<path d="M9.28469 -0.877734C8.56519 -0.0396431 8.66133 1.22303 9.49942 1.94253C10.3375 2.66203 11.6002 2.56589 12.3197 1.7278L9.28469 -0.877734ZM12.5726 0.425034L11.0551 1.7278L11.0551 1.7278L12.5726 0.425034ZM19.8164 8.86277L18.2989 10.1655L18.2989 10.1655L19.8164 8.86277ZM22.8233 12.3654L24.3408 11.0626L24.3408 11.0626L22.8233 12.3654ZM22.8233 14.4276L24.3319 15.7407C24.3379 15.7338 24.3438 15.7269 24.3497 15.72L22.8233 14.4276ZM21.0529 14.4276L19.5354 15.7304L19.5354 15.7304L21.0529 14.4276ZM21.0163 11.3145C20.2968 10.4764 19.0341 10.3803 18.196 11.0998C17.3579 11.8193 17.2618 13.0819 17.9813 13.92L21.0163 11.3145ZM12.3197 1.7278C12.1974 1.87027 11.9748 2 11.6874 2V-2C10.7648 -2 9.89352 -1.58692 9.28469 -0.877734L12.3197 1.7278ZM11.6874 2C11.4005 2 11.1732 1.86538 11.0551 1.7278L14.0901 -0.877734C13.4854 -1.58203 12.623 -2 11.6874 -2V2ZM11.0551 1.7278L18.2989 10.1655L21.3339 7.56L14.0901 -0.877734L11.0551 1.7278ZM18.2989 10.1655L21.3058 13.6681L24.3408 11.0626L21.3339 7.56L18.2989 10.1655ZM21.3058 13.6681C21.2013 13.5463 21.1882 13.4394 21.1882 13.3935C21.1882 13.3473 21.2012 13.2483 21.297 13.1352L24.3497 15.72C25.4633 14.4047 25.4751 12.3838 24.3408 11.0626L21.3058 13.6681ZM21.3148 13.1145C21.4263 12.9864 21.6449 12.8526 21.9356 12.8526C22.2275 12.8526 22.4528 12.9879 22.5704 13.1248L19.5354 15.7304C20.8255 17.2331 23.047 17.2169 24.3319 15.7407L21.3148 13.1145ZM22.5704 13.1248L21.0163 11.3145L17.9813 13.92L19.5354 15.7304L22.5704 13.1248Z" fill="#667580" mask="url(#path-3-inside-2)"/>
<mask id="path-5-inside-3" fill="white">
<path d="M3.87601 12.6251L2.32859 14.4276C1.83532 14.9943 1.04472 14.9943 0.55819 14.4276C0.0649133 13.853 0.0649133 12.9321 0.55819 12.3654L3.55841 8.87065L10.8022 0.425034C11.0455 0.141678 11.3698 0 11.6874 0C12.0117 0 12.3293 0.141678 12.5726 0.425034"/>
</mask>
<path d="M5.3935 13.9279C6.113 13.0898 6.01686 11.8271 5.17877 11.1076C4.34068 10.3881 3.07801 10.4843 2.35851 11.3224L5.3935 13.9279ZM2.32859 14.4276L3.8372 15.7407L3.84609 15.7304L2.32859 14.4276ZM0.55819 14.4276L-0.959307 15.7304L-0.959297 15.7304L0.55819 14.4276ZM0.55819 12.3654L2.06681 13.6785L2.07569 13.6681L0.55819 12.3654ZM3.55841 8.87065L5.07591 10.1734L5.07651 10.1727L3.55841 8.87065ZM10.8022 0.425034L9.28469 -0.877734L9.28409 -0.877034L10.8022 0.425034ZM11.0551 1.7278C11.7746 2.56589 13.0373 2.66203 13.8754 1.94253C14.7134 1.22303 14.8096 -0.039643 14.0901 -0.877734L11.0551 1.7278ZM2.35851 11.3224L0.811097 13.1248L3.84609 15.7304L5.3935 13.9279L2.35851 11.3224ZM0.820021 13.1145C0.931522 12.9864 1.1502 12.8526 1.44086 12.8526C1.73275 12.8526 1.9581 12.9879 2.07568 13.1248L-0.959297 15.7304C0.330783 17.2331 2.55222 17.2169 3.83717 15.7407L0.820021 13.1145ZM2.07569 13.1248C2.1724 13.2375 2.18823 13.34 2.18823 13.3935C2.18823 13.4467 2.17228 13.5572 2.06677 13.6785L-0.950393 11.0523C-2.10336 12.3769 -2.09145 14.4116 -0.959307 15.7304L2.07569 13.1248ZM2.07569 13.6681L5.07591 10.1734L2.04092 7.56788L-0.959306 11.0626L2.07569 13.6681ZM5.07651 10.1727L12.3203 1.7271L9.28409 -0.877034L2.04032 7.56858L5.07651 10.1727ZM12.3197 1.7278C12.1974 1.87027 11.9748 2 11.6874 2V-2C10.7648 -2 9.89353 -1.58692 9.28469 -0.877734L12.3197 1.7278ZM11.6874 2C11.4005 2 11.1732 1.86538 11.0551 1.7278L14.0901 -0.877734C13.4854 -1.58203 12.623 -2 11.6874 -2V2Z" fill="#667580" mask="url(#path-5-inside-3)"/>
<path d="M13.5601 13.5232C13.5601 14.9307 12.6052 15.8429 11.6889 15.8429C10.7725 15.8429 9.81765 14.9307 9.81765 13.5232C9.81765 12.1158 10.7725 11.2035 11.6889 11.2035C12.6052 11.2035 13.5601 12.1158 13.5601 13.5232Z" stroke="#667580" stroke-width="1.7" stroke-miterlimit="10" stroke-linecap="round" stroke-linejoin="round"/>
</svg>
