<svg width="32" height="32" xmlns="http://www.w3.org/2000/svg">

 <g>
  <title>background</title>
  <rect fill="none" id="canvas_background" height="34" width="34" y="-1" x="-1"/>
 </g>
 <g>
  <title>Layer 1</title>
  <polyline stroke-miterlimit="10" stroke-linejoin="round" stroke-linecap="round" stroke-width="0.7" stroke="#303030" fill="none" id="svg_3" points="5.449129104614258,15.5968599319458 7.945618629455566,31.180907249450684 24.134068489074707,31.180907249450684 26.63097858428955,15.587698936462402 " class="st1"/>
  <path stroke-miterlimit="10" stroke-linejoin="round" stroke-linecap="round" stroke-width="0.7" stroke="#303030" fill="none" id="svg_5" d="m14.652602,1.021687c0.32982,-0.32982 0.76958,-0.49473 1.20018,-0.49473c0.43976,0 0.87036,0.16491 1.20018,0.49473l9.82134,9.82134l4.07696,4.07696c0.65964,0.65964 0.65964,1.73156 0,2.40037c-0.6688,0.65964 -1.74072,0.65964 -2.40037,0l-2.10719,-2.10719" class="st1"/>
  <path stroke-miterlimit="10" stroke-linejoin="round" stroke-linecap="round" stroke-width="0.7" stroke="#303030" fill="none" id="svg_6" d="m5.261862,15.222327l-2.09803,2.09803c-0.6688,0.65964 -1.74072,0.65964 -2.40037,0c-0.6688,-0.6688 -0.6688,-1.74072 0,-2.40037l4.0678,-4.06779l9.82134,-9.83051c0.32982,-0.32982 0.76958,-0.49473 1.20018,-0.49473c0.43976,0 0.87036,0.16491 1.20018,0.49473" class="st1"/>
  <circle stroke-miterlimit="10" stroke-linejoin="round" stroke-linecap="round" stroke-width="0.7" stroke="#303030" fill="none" id="svg_7" r="3.68949" cy="17.542507" cx="15.854752" class="st1"/>
 </g>
</svg>