<svg width="48" height="48" xmlns="http://www.w3.org/2000/svg">

 <g>
  <title>background</title>
  <rect fill="none" id="canvas_background" height="402" width="582" y="-1" x="-1"/>
 </g>
 <g>
  <title>Layer 1</title>
  <path fill="#999999" id="svg_3" d="m44,40l-40,0c-2.206,0 -4,-1.794 -4,-4l0,-24c0,-2.206 1.794,-4 4,-4l40,0c2.206,0 4,1.794 4,4l0,24c0,2.206 -1.794,4 -4,4zm-40,-30c-1.103,0 -2,0.897 -2,2l0,24c0,1.103 0.897,2 2,2l40,0c1.103,0 2,-0.897 2,-2l0,-24c0,-1.103 -0.897,-2 -2,-2l-40,0z"/>
  <path fill="#999999" stroke="null" id="svg_5" d="m23.999998,29.078642l-21.485119,-16.958783c-0.568266,-0.449704 -0.731153,-1.373018 -0.363739,-2.066249s1.12551,-0.890444 1.693776,-0.443728l20.155082,15.909971l20.155082,-15.909971c0.568266,-0.446716 1.326363,-0.249504 1.693776,0.443728s0.204527,1.616545 -0.363739,2.066249l-21.485119,16.958783z"/>
 </g>
</svg>