<svg width="23" height="23" viewBox="0 0 23 23" fill="none" xmlns="http://www.w3.org/2000/svg">
<path d="M3.01545 16.0432C3.01538 16.0424 3.0153 16.0412 3.0152 16.04L3.01544 16.0431L3.01545 16.0432ZM3.01545 16.0432C3.01552 16.0442 3.01556 16.0448 3.01554 16.0445L3.01553 16.0444L3.01551 16.0441L3.01545 16.0432ZM21.2183 13.9618C21.3866 14.0167 21.5457 14.105 21.7124 14.2478C21.8453 14.3891 21.922 14.4934 21.9744 14.6161C22.0124 14.7096 22.0075 14.8026 21.9637 14.892C21.9182 14.985 21.8218 15.0867 21.6578 15.1441C21.6577 15.1441 21.6577 15.1441 21.6577 15.1441L3.75242 21.4044L4.08246 22.3483L3.75242 21.4044C3.57426 21.4667 3.37175 21.4633 3.20606 21.4054C3.04239 21.3481 2.97322 21.2622 2.94871 21.2052L2.94579 21.1984C2.94566 21.198 2.94553 21.1977 2.94541 21.1974C2.83082 20.9237 2.85645 20.6027 3.04072 20.3244L3.13454 20.1826L3.17627 20.0179C3.5516 18.5359 3.49529 17.0964 2.95763 15.7737C2.95243 15.7594 2.94674 15.7448 2.94049 15.7298C2.94048 15.7298 2.94047 15.7298 2.94047 15.7298L1.52704 12.3483L1.52613 12.3461C0.269218 9.35892 1.31423 5.95113 4.17096 3.96396L4.83477 3.5022L4.52217 2.75645L4.50156 2.70729L4.50146 2.70706C4.37654 2.40924 4.38388 2.09172 4.53004 1.79007C4.67869 1.48432 4.95515 1.23081 5.34001 1.09489L5.34077 1.09463C5.72306 0.95928 6.14623 0.968883 6.52986 1.12502C6.911 1.28014 7.16895 1.54476 7.29525 1.84653L7.29525 1.84653L7.29657 1.84967L7.32129 1.90814L7.6071 2.58453L8.33803 2.51433C9.68167 2.38528 11.0653 2.57984 12.3583 3.11013L12.3616 3.11148C14.3684 3.92612 15.8634 5.3778 16.6126 7.16988L16.6134 7.17178L18.0204 10.5179L18.0347 10.5519L18.0515 10.5849C18.056 10.5936 18.0604 10.602 18.0648 10.6101C18.635 11.9335 19.6247 12.9927 20.9949 13.8569L21.1001 13.9233L21.2183 13.9618ZM3.21674 12.7322L3.20147 12.5396L3.23537 12.7291C3.91155 12.6081 4.5061 11.953 4.33402 11.1369L4.33389 11.1363C4.27237 10.8455 4.23846 10.5476 4.23332 10.2525L4.23328 10.2504C4.22768 9.96317 4.1373 9.7143 3.99336 9.51262C4.18506 9.35233 4.33793 9.13392 4.41646 8.85938C4.62466 8.1328 5.01392 7.43189 5.54594 6.83939C5.8741 6.47495 6.25539 6.14947 6.68003 5.87308C7.25329 5.50154 7.47258 4.74508 7.13585 4.12818V3.19059L6.55968 3.56541C6.12097 3.34019 5.57895 3.36165 5.1566 3.63901C4.5344 4.0428 3.971 4.5224 3.4821 5.06598L3.48174 5.06638C2.68498 5.95319 2.09209 7.01166 1.77085 8.13447C1.6486 8.56079 1.74525 8.95658 1.9629 9.259C1.67449 9.49752 1.47826 9.85612 1.48557 10.2979L1.4856 10.2996C1.49407 10.7632 1.54727 11.2264 1.64246 11.6791L1.64316 11.6823C1.79017 12.3699 2.4082 12.7504 2.98777 12.7504C3.06509 12.7504 3.14175 12.7442 3.21674 12.7322Z" stroke="#667580" stroke-width="2"/>
<path d="M16.937 16.7773L15.8263 17.1966L8.71124 19.8829L7.60059 20.3021C8.20057 20.8697 9.0722 21.2792 10.1405 21.4531C10.8095 21.5625 11.5033 21.5752 12.1868 21.4963C12.7923 21.4264 13.3894 21.2851 13.951 21.0721L14.3891 20.9073C15.5838 20.4561 16.4861 19.7389 16.9298 18.8902C17.3042 18.1718 17.2894 17.4383 16.937 16.7773V16.7773Z" stroke="#667580" stroke-width="2"/>
</svg>
