<svg width="22" height="24" xmlns="http://www.w3.org/2000/svg">

 <g>
  <title>background</title>
  <rect fill="none" id="canvas_background" height="26" width="24" y="-1" x="-1"/>
 </g>
 <g>
  <title>Layer 1</title>
  <path stroke-miterlimit="10" stroke-linejoin="round" stroke-linecap="round" stroke-width="0.7" stroke="#303030" fill="none" id="svg_2" d="m7.497679,1.97454c1.5017,-0.21735 2.98363,0.03952 4.3075,0.63229c1.91664,0.84964 3.49737,2.39086 4.3075,4.50509l1.32386,3.4381" class="st1"/>
  <path stroke-miterlimit="10" stroke-linejoin="round" stroke-linecap="round" stroke-width="0.7" stroke="#303030" fill="none" id="svg_3" d="m3.822479,3.37745c-2.98363,2.11423 -4.26798,6.02655 -2.9046,9.56344l1.32386,3.45786" class="st1"/>
  <path stroke-miterlimit="10" stroke-linejoin="round" stroke-linecap="round" stroke-width="0.7" stroke="#303030" fill="none" id="svg_4" d="m2.701669,10.55381c0.0064,0.38461 0.04606,0.77179 0.12069,1.15766" class="st1"/>
  <path stroke-miterlimit="10" stroke-linejoin="round" stroke-linecap="round" stroke-width="0.7" stroke="#303030" fill="none" id="svg_5" d="m5.566639,4.91363c-0.4976,0.35261 -0.93833,0.76539 -1.31581,1.22376c-0.6281,0.76268 -1.08109,1.65156 -1.32965,2.59939" class="st1"/>
  <line stroke-miterlimit="10" stroke-linejoin="round" stroke-linecap="round" stroke-width="0.7" stroke="#303030" fill="none" id="svg_6" y2="22.9458" y1="17.10173" x2="4.754369" x1="19.950939" class="st1"/>
  <path stroke-miterlimit="10" stroke-linejoin="round" stroke-linecap="round" stroke-width="0.7" stroke="#303030" fill="none" id="svg_7" d="m3.816099,3.38575l-0.11348,-0.29508c-0.39008,-1.01433 0.12068,-2.1634 1.13501,-2.55348c1.01433,-0.39008 2.1634,0.12068 2.55348,1.13501l0.11348,0.29508" class="st1"/>
  <path stroke-miterlimit="10" stroke-linejoin="round" stroke-linecap="round" stroke-width="0.7" stroke="#303030" fill="none" id="svg_8" d="m2.242029,16.40085c0.47,1.24 0.51597,2.57274 0.17597,3.99274l0,0c-0.29226,0.45111 -0.38449,1.037 -0.17172,1.59027c0.35462,0.92212 1.40154,1.38748 2.32366,1.03286l0.18443,-0.07092l15.19658,-5.84407l0.14754,-0.05674c0.92212,-0.35462 1.38748,-1.40154 1.03286,-2.32366c-0.0922,-0.23975 -0.22554,-0.42134 -0.37733,-0.59584c-0.20285,-0.1972 -0.4355,-0.36177 -0.7022,-0.44973l-0.03335,-0.0115c-1.22,-0.83 -2.09644,-1.8534 -2.57644,-3.1134" class="st1"/>
  <path stroke-miterlimit="10" stroke-linejoin="round" stroke-linecap="round" stroke-width="0.7" stroke="#303030" fill="none" id="svg_9" d="m11.448979,20.37129c0.48937,1.27253 -0.16468,2.70957 -1.43721,3.19894l-0.25819,0.09929c-1.27253,0.48937 -2.72092,-0.13914 -3.21029,-1.41167" class="st1"/>
 </g>
</svg>