<svg width="32" height="48" xmlns="http://www.w3.org/2000/svg">

 <g>
  <title>background</title>
  <rect fill="none" id="canvas_background" height="50" width="34" y="-1" x="-1"/>
 </g>
 <g>
  <title>Layer 1</title>
  <path stroke="#303030" id="svg_2" fill="none" d="m31.803649,29.265415c-0.174516,-0.603469 -0.426204,-1.037285 -0.680062,-1.422888c-0.371394,-0.482009 -0.766596,-0.825204 -1.212281,-1.037285c-1.743067,-1.60413 -2.907022,-3.491674 -3.556083,-5.770625c-0.004505,-0.015656 -0.014061,-0.025785 -0.019289,-0.04073l-1.945173,-6.749825c-1.18992,-4.15301 -3.546704,-7.449957 -6.63257,-9.277737c-1.997989,-1.195625 -4.136436,-1.634732 -6.214741,-1.343481l-0.034162,-0.117965c-0.32741,-1.141391 -0.971405,-2.045646 -1.812292,-2.54501s-1.775516,-0.534072 -2.62649,-0.094471c-0.853146,0.439601 -1.52888,1.299494 -1.903154,2.42355c-0.373565,1.124056 -0.398806,2.369572 -0.070672,3.510963l0.02849,0.09917c-4.442667,4.509215 -6.151734,12.375377 -4.14131,19.347056l1.954094,6.821296c0.000724,0.002527 0.000266,0.005311 0.00099,0.007838c0.633907,2.234608 0.721165,4.71407 0.260342,7.36897c-0.501218,1.104767 -0.597131,2.462108 -0.253135,3.657496c0.002924,0.010128 0.005863,0.020237 0.008832,0.030306c0.42997,1.457794 1.742107,2.067245 2.83731,1.508514l24.75416,-12.628445c1.1204,-0.571623 1.682926,-2.248053 1.257195,-3.746696l0,0zm-27.425978,-5.014837c-0.033172,0.00772 -0.066345,0.011569 -0.098793,0.011569c-0.242308,0 -0.458667,-0.229435 -0.506978,-0.559126c-0.113947,-0.790496 -0.177411,-1.598346 -0.187499,-2.404261c-0.004327,-0.381753 0.222842,-0.696025 0.508425,-0.70181c0.00288,0 0.005775,0 0.008655,0c0.281979,0 0.512029,0.300767 0.51708,0.678671c0.008655,0.724948 0.065621,1.453747 0.168756,2.165191c0.054056,0.374034 -0.129115,0.736518 -0.409647,0.809765zm4.25344,-13.536768c-0.686546,0.651682 -1.306761,1.422888 -1.843308,2.292436c-0.871164,1.415189 -1.515174,3.09837 -1.862774,4.868304c-0.060585,0.310421 -0.270444,0.514783 -0.49977,0.514783c-0.043275,0 -0.087258,-0.005785 -0.131257,-0.021204c-0.276204,-0.098321 -0.441357,-0.47429 -0.368514,-0.844473c0.384376,-1.96081 1.098334,-3.827169 2.064703,-5.396591c0.594236,-0.964018 1.28152,-1.818146 2.043789,-2.539225c0.230773,-0.22365 0.55458,-0.150384 0.720442,0.163888c0.165153,0.310402 0.109619,0.742283 -0.123311,0.962083z"/>
  <path stroke="#303030" id="svg_3" fill="none" d="m21.663892,38.30353l-1.373061,0.595661l-8.796305,3.816153l-1.373061,0.595519c0.61953,1.302852 1.583443,2.346504 2.81534,2.954608c0.771345,0.381869 1.586783,0.571654 2.40428,0.571654c0.724164,0 1.449337,-0.148121 2.143755,-0.451308l0.541574,-0.233747c1.477023,-0.641093 2.650458,-1.89548 3.303829,-3.527138c0.551741,-1.381392 0.647133,-2.885761 0.333649,-4.321401z"/>
 </g>
</svg>