<svg width="23" height="24" viewBox="0 0 23 24" fill="none" xmlns="http://www.w3.org/2000/svg">
<path d="M21.0917 14.2383L20.9856 14.1698C19.6137 13.2833 18.6275 12.1995 18.0608 10.8508C18.0562 10.8423 18.0517 10.8335 18.0471 10.8244L18.0309 10.7918L18.0171 10.7581L16.6101 7.33007L16.6093 7.3282C15.856 5.48202 14.3564 3.99465 12.3537 3.16178L12.3503 3.16038C11.0597 2.61809 9.67983 2.41952 8.34035 2.55132L7.60117 2.62405L7.31797 1.93742L7.29326 1.87751L7.29198 1.87441L7.29199 1.87441C7.16154 1.55511 6.89901 1.28385 6.52198 1.12664C6.14246 0.968396 5.72542 0.958862 5.348 1.09576L5.34724 1.09603C4.96714 1.23355 4.68704 1.49256 4.53418 1.81459C4.38303 2.13408 4.37497 2.47382 4.50474 2.79076L4.50483 2.79099L4.52544 2.84136L4.82546 3.57461L4.18027 4.0344C1.32256 6.07097 0.262095 9.58027 1.52942 12.666L1.5303 12.6682L2.94373 16.1325C2.94373 16.1325 2.94374 16.1325 2.94375 16.1325C2.94986 16.1475 2.95542 16.1622 2.96048 16.1765C3.49464 17.5224 3.55094 18.9867 3.17765 20.4968L3.13753 20.6591L3.04679 20.7995C2.8567 21.0937 2.82806 21.4391 2.94874 21.7343C2.94885 21.7346 2.94896 21.7348 2.94907 21.7351L2.95212 21.7424L21.0917 14.2383ZM21.0917 14.2383L21.2115 14.2783M21.0917 14.2383L21.2115 14.2783M21.2115 14.2783C21.3775 14.3338 21.5362 14.4236 21.7037 14.5708C21.8372 14.716 21.9165 14.8256 21.9711 14.9568C22.0468 15.1477 21.9699 15.4264 21.6506 15.5408C21.6506 15.5408 21.6506 15.5408 21.6506 15.5408L3.74524 21.9544L4.08246 22.8959M21.2115 14.2783L4.08246 22.8959M4.08246 22.8959L3.74524 21.9544M4.08246 22.8959L3.74524 21.9544M3.74524 21.9544C3.57153 22.0167 3.37469 22.0133 3.21324 21.9555M3.74524 21.9544L3.21324 21.9555M3.21324 21.9555C3.05508 21.8988 2.98119 21.8116 2.95216 21.7425L3.21324 21.9555ZM18.1715 11.017C18.1711 11.0166 18.17 11.0152 18.1684 11.0131L18.171 11.0164L18.1715 11.017ZM3.2205 13.0193L3.20488 12.8269L3.23955 13.016C3.93516 12.8885 4.49887 12.2157 4.335 11.4196L4.33488 11.419C4.27278 11.1182 4.23852 10.81 4.23333 10.5045L4.23329 10.5025C4.22767 10.2071 4.13165 9.94828 3.97789 9.73958C4.17967 9.57449 4.339 9.3472 4.41818 9.06358C4.62827 8.31246 5.02039 7.59026 5.55413 6.98135C5.88319 6.60699 6.26494 6.2733 6.68931 5.99032C7.26176 5.61022 7.4671 4.85373 7.13585 4.24131V3.28922L6.5584 3.67408C6.11878 3.44746 5.57365 3.46794 5.14729 3.75483C4.52491 4.16864 3.96205 4.65967 3.47411 5.21546L3.47376 5.21586C2.6785 6.1227 2.08834 7.20324 1.76899 8.34709C1.64894 8.77657 1.74943 9.18345 1.97762 9.49223C1.67861 9.73553 1.47839 10.1051 1.48556 10.5494L1.48559 10.5511C1.494 11.0229 1.54686 11.4945 1.64148 11.9554L1.64215 11.9586C1.7839 12.6379 2.39004 13.0383 2.98777 13.0383C3.06642 13.0383 3.14435 13.0318 3.2205 13.0193ZM3.01557 16.4397L3.01534 16.4367C3.01554 16.4394 3.0157 16.4416 3.01567 16.4411L3.01566 16.441L3.01564 16.4407L3.01557 16.4397Z" stroke="#3BB9E3" stroke-width="2"/>
<path d="M16.937 17.1883L15.8263 17.6179L8.71124 20.37L7.60059 20.7995C8.20057 21.381 9.0722 21.8005 10.1405 21.9787C10.8095 22.0908 11.5033 22.1038 12.1868 22.023C12.7923 21.9514 13.3894 21.8066 13.951 21.5884L14.3891 21.4195C15.5838 20.9573 16.4861 20.2225 16.9298 19.353C17.3042 18.617 17.2894 17.8655 16.937 17.1883V17.1883Z" stroke="#3BB9E3" stroke-width="2"/>
</svg>
