<svg width="20" height="20" xmlns="http://www.w3.org/2000/svg">

 <g>
  <title>background</title>
  <rect fill="none" id="canvas_background" height="22" width="22" y="-1" x="-1"/>
 </g>
 <g>
  <title>Layer 1</title>
  <path stroke="#999999" fill-opacity="0" fill="#00ffff" id="svg_2" d="m9.790174,19.117502c0.09231,0.03111 0.18462,0.04666 0.27694,0.04666c0.09231,0 0.18463,-0.00778 0.26925,-0.04666c0.07692,-0.02333 7.33887,-2.62056 7.33887,-10.57559c0,-4.23023 -3.41558,-7.68285 -7.60812,-7.68285c-4.19254,0 -7.60812,3.45262 -7.60812,7.68285c0,7.95503 7.26194,10.55226 7.33118,10.57559zm0.27694,-14.75139c2.26167,0 4.10023,1.85851 4.10023,4.1447c0,2.27842 -1.83856,4.1447 -4.10023,4.1447c-2.26167,0 -4.10023,-1.86628 -4.10023,-4.1447c0,-2.28619 1.83856,-4.1447 4.10023,-4.1447z"/>
  <ellipse stroke="#999999" ry="4.060401" rx="4.100672" id="svg_4" cy="8.653524" cx="9.966442" stroke-width="null" fill="none"/>
 </g>
</svg>