<svg width="36" height="22" viewBox="0 0 36 22" fill="none" xmlns="http://www.w3.org/2000/svg">
<path d="M26.1868 20.8132C26.6359 21.2623 27.3641 21.2623 27.8132 20.8132L35.1317 13.4946C35.5808 13.0455 35.5808 12.3174 35.1317 11.8683C34.6826 11.4192 33.9545 11.4192 33.5054 11.8683L27 18.3737L20.4946 11.8683C20.0455 11.4192 19.3174 11.4192 18.8683 11.8683C18.4192 12.3174 18.4192 13.0455 18.8683 13.4946L26.1868 20.8132ZM25.85 1V20H28.15V1L25.85 1Z" fill="#667580"/>
<path d="M9.81317 1.18683C9.36407 0.737724 8.63593 0.737724 8.18683 1.18683L0.868272 8.50538C0.419169 8.95449 0.419169 9.68262 0.868272 10.1317C1.31738 10.5808 2.04551 10.5808 2.49462 10.1317L9 3.62635L15.5054 10.1317C15.9545 10.5808 16.6826 10.5808 17.1317 10.1317C17.5808 9.68262 17.5808 8.95449 17.1317 8.50538L9.81317 1.18683ZM10.15 21L10.15 2H7.85L7.85 21H10.15Z" fill="#667580"/>
<line x1="8" y1="19.85" x2="24" y2="19.85" stroke="#667580" stroke-width="2.3"/>
<line x1="12" y1="1.85" x2="28" y2="1.85" stroke="#667580" stroke-width="2.3"/>
</svg>
