<svg width="59.99999999999999" height="59.99999999999999" xmlns="http://www.w3.org/2000/svg">

 <g>
  <title>background</title>
  <rect fill="none" id="canvas_background" height="62" width="62" y="-1" x="-1"/>
 </g>
 <g>
  <title>Layer 1</title>
  <polygon id="svg_2" points="58.77102279663086,13.06226634979248 46.27122497558594,0.5622270107269287 44.7712516784668,2.0622313022613525 54.871089935302734,12.062262535095215 1.4712051153182983,11.962263107299805 1.4712051153182983,26.86227798461914 3.7712137699127197,26.86227798461914 3.7712137699127197,14.162273406982422 54.871089935302734,14.162273406982422 44.57125473022461,24.36227798461914 46.071231842041016,25.762279510498047 58.77102279663086,13.16226863861084 58.77102279663086,13.06226634979248 " fill="#010101"/>
  <polygon id="svg_3" points="1.471205160021782,46.99177169799805 13.971247360110283,59.391571044921875 15.471253082156181,57.99159240722656 5.371215984225273,47.991756439208984 56.471066161990166,47.991756439208984 56.471066161990166,48.09175109863281 58.77102343738079,48.09175109863281 58.77102343738079,33.191871643066406 56.471066161990166,33.191871643066406 56.471066161990166,45.89179229736328 5.371215984225273,45.89179229736328 15.671250984072685,35.691871643066406 14.271247550845146,34.291873931884766 1.471205160021782,46.89177703857422 1.571206733584404,46.99177169799805 " fill="#010101"/>
 </g>
</svg>