<svg width="15" height="15" xmlns="http://www.w3.org/2000/svg">

 <g>
  <title>background</title>
  <rect fill="none" id="canvas_background" height="17" width="17" y="-1" x="-1"/>
 </g>
 <g>
  <title>Layer 1</title>
  <path stroke="null" id="svg_4" fill="#303030" d="m14.023274,14.925093c-0.208284,0 -0.416406,-0.075981 -0.575304,-0.227711l-6.904303,-6.599642c-0.317715,-0.303614 -0.317715,-0.796054 0,-1.099902c0.317796,-0.303614 0.832812,-0.303614 1.15069,0l6.904303,6.599642c0.317715,0.303614 0.317715,0.796054 0,1.099902c-0.15898,0.151729 -0.367101,0.227711 -0.575386,0.227711z"/>
  <path stroke="null" id="svg_6" fill="#D7DEED" d="m10.233824,1.843792c2.341354,2.297246 2.341354,6.022182 0,8.319427c-2.340942,2.297613 -6.136828,2.297613 -8.477809,0c-2.341354,-2.297246 -2.341354,-6.022182 0,-8.319427c2.34098,-2.29765 6.136828,-2.29765 8.477809,0z"/>
 </g>
</svg>